<svg width="160" height="160" viewBox="0 0 160 160" fill="none" xmlns="http://www.w3.org/2000/svg">
<path d="M55.1729 160H44.1377V154.482H55.1729V160ZM66.207 160H60.6895V154.482H66.207V160ZM82.7588 160H71.7246V154.482H82.7588V160ZM110.345 160H93.793V154.482H104.827V143.448H110.345V160ZM137.931 115.862H143.448V121.379H148.966V126.896H137.931V132.414H143.448V137.931H154.482V148.966H148.966V160H115.862V137.931H104.827V126.896H99.3105V121.379H93.793V110.345H99.3105V115.862H104.827V121.379H110.345V104.827H137.931V115.862ZM71.7246 154.482H66.207V148.966H71.7246V154.482ZM88.2754 154.482H82.7588V143.448H88.2754V154.482ZM121.379 154.482H126.896V148.966H121.379V154.482ZM132.414 154.482H137.931V148.966H132.414V154.482ZM160 154.482H154.482V148.966H160V154.482ZM66.207 143.448H60.6895V148.966H49.6553V137.931H66.207V143.448ZM104.827 143.448H99.3105V148.966H88.2764V143.448H93.793V137.931H104.827V143.448ZM88.2754 132.414H82.7588V143.448H71.7246V137.931H66.207V132.414H77.2412V126.896H88.2754V132.414ZM121.379 143.448H126.896V137.931H121.379V143.448ZM132.414 143.448H137.931V137.931H132.414V143.448ZM93.793 137.931H88.2764V126.896H93.793V137.931ZM66.207 132.414H55.1729V126.896H66.207V132.414ZM115.862 132.414H132.414V115.862H115.862V132.414ZM160 132.414H154.482V126.896H160V132.414ZM71.7246 126.896H66.207V121.379H71.7246V126.896ZM126.896 126.896H121.379V121.379H126.896V126.896ZM55.1729 104.827H60.6895V110.345H55.1729V115.862H60.6895V121.379H44.1377V115.862H49.6553V104.827H44.1377V99.3105H38.6211V93.793H55.1729V104.827ZM88.2754 115.862H82.7588V121.379H77.2412V110.345H88.2754V115.862ZM5.51758 99.3105H11.0342V104.827H5.51758V115.862H0V88.2754H5.51758V99.3105ZM27.5859 115.862H22.0693V110.345H27.5859V115.862ZM44.1377 115.862H33.1035V110.345H44.1377V115.862ZM66.207 115.862H60.6895V110.345H66.207V115.862ZM160 115.862H143.448V110.345H160V115.862ZM38.6211 104.827H33.1035V110.345H27.5859V104.827H22.0693V110.345H11.0342V104.827H16.5518V99.3105H38.6211V104.827ZM77.2412 110.345H66.207V104.827H77.2412V110.345ZM104.827 110.345H99.3105V104.827H104.827V110.345ZM66.207 104.827H60.6895V88.2754H66.207V104.827ZM88.2754 104.827H82.7588V99.3105H88.2754V104.827ZM104.827 82.7588H110.345V93.793H115.862V99.3105H110.345V104.827H104.827V99.3105H93.793V93.793H88.2764V88.2754H99.3105V82.7588H93.793V77.2412H104.827V82.7588ZM143.448 104.827H137.931V99.3105H143.448V104.827ZM132.414 82.7588H137.931V77.2412H148.966V93.793H160V104.827H154.482V99.3105H143.448V93.793H137.931V99.3105H121.379V93.793H126.896V77.2412H132.414V82.7588ZM82.7588 99.3105H71.7246V93.793H82.7588V99.3105ZM38.6211 93.793H22.0693V88.2754H38.6211V93.793ZM137.931 88.2754H132.414V93.793H137.931V88.2754H143.448V82.7588H137.931V88.2754ZM55.1729 60.6895H60.6895V77.2412H55.1729V82.7588H60.6895V88.2754H44.1377V77.2412H49.6553V71.7246H55.1729V66.207H49.6553V71.7246H44.1377V66.207H38.6211V71.7246H27.5859V60.6895H33.1035V66.207H38.6211V60.6895H33.1035V55.1729H55.1729V60.6895ZM88.2754 88.2754H82.7588V82.7588H88.2754V88.2754ZM160 88.2754H154.482V82.7588H160V88.2754ZM11.0342 82.7588H0V77.2412H11.0342V82.7588ZM27.5859 82.7588H22.0693V71.7246H27.5859V82.7588ZM38.6211 82.7588H33.1035V77.2412H38.6211V82.7588ZM115.862 71.7246H121.379V60.6895H132.414V71.7246H126.896V77.2412H121.379V82.7588H115.862V77.2412H104.827V66.207H110.345V60.6895H115.862V71.7246ZM16.5518 77.2412H11.0342V71.7246H16.5518V77.2412ZM44.1377 77.2412H38.6211V71.7246H44.1377V77.2412ZM93.793 77.2412H88.2764V66.207H93.793V77.2412ZM137.931 77.2412H132.414V71.7246H137.931V77.2412ZM160 77.2412H148.966V71.7246H154.482V66.207H160V77.2412ZM11.0342 71.7246H5.51758V66.207H11.0342V71.7246ZM77.2412 55.1729H88.2754V60.6895H77.2412V71.7246H71.7246V66.207H66.207V55.1729H71.7246V49.6553H77.2412V55.1729ZM88.2754 71.7246H82.7588V66.207H88.2754V71.7246ZM5.51758 66.207H0V60.6895H5.51758V66.207ZM16.5518 55.1729H27.5859V60.6895H16.5518V66.207H11.0342V60.6895H5.51758V55.1729H11.0342V49.6553H16.5518V55.1729ZM143.448 66.207H137.931V60.6895H143.448V66.207ZM93.793 44.1377H99.3105V49.6553H104.827V44.1377H110.345V55.1729H99.3105V60.6895H88.2764V33.1035H93.793V44.1377ZM5.51758 55.1729H0V44.1377H5.51758V55.1729ZM33.1035 55.1729H27.5859V49.6553H33.1035V55.1729ZM137.931 55.1729H126.896V49.6553H137.931V55.1729ZM154.482 55.1729H143.448V49.6553H137.931V44.1377H154.482V55.1729ZM38.6211 49.6553H33.1035V44.1377H38.6211V49.6553ZM49.6553 49.6553H44.1377V33.1035H49.6553V49.6553ZM60.6895 49.6553H55.1729V44.1377H60.6895V49.6553ZM126.896 49.6553H115.862V44.1377H126.896V49.6553ZM66.207 44.1377H60.6895V38.6211H66.207V44.1377ZM82.7588 38.6211H88.2754V44.1377H77.2412V33.1035H82.7588V38.6211ZM104.827 44.1377H99.3105V33.1035H104.827V44.1377ZM115.862 44.1377H110.345V27.5859H104.827V22.0693H110.345V5.51758H115.862V44.1377ZM60.6895 38.6211H55.1729V33.1035H60.6895V38.6211ZM71.7246 38.6211H66.207V27.5859H71.7246V38.6211ZM55.1729 11.0342H60.6895V5.51758H82.7588V11.0342H77.2412V16.5518H66.207V11.0342H60.6895V16.5518H55.1729V33.1035H49.6553V22.0693H44.1377V5.51758H55.1729V11.0342ZM88.2754 33.1035H82.7588V22.0693H88.2754V33.1035ZM99.3105 22.0693H93.793V27.5859H88.2764V16.5518H99.3105V22.0693ZM66.207 22.0693H60.6895V16.5518H66.207V22.0693ZM88.2754 16.5518H82.7588V11.0342H88.2754V16.5518ZM104.827 16.5518H99.3105V11.0342H104.827V16.5518ZM93.793 5.51758H99.3105V11.0342H88.2764V0H93.793V5.51758ZM60.6895 5.51758H55.1729V0H60.6895V5.51758ZM88.2754 5.51758H82.7588V0H88.2754V5.51758ZM104.827 5.51758H99.3105V0H104.827V5.51758Z" fill="white"/>
<path fill-rule="evenodd" clip-rule="evenodd" d="M5.7931 0H32.8276H38.6207V5.7931V32.8276V38.6207H32.8276H5.7931H0V32.8276V5.7931V0H5.7931ZM5.7931 32.8276H32.8276V5.7931H5.7931V32.8276Z" fill="white"/>
<path fill-rule="evenodd" clip-rule="evenodd" d="M127.172 0H154.207H160V5.7931V32.8276V38.6207H154.207H127.172H121.379V32.8276V5.7931V0H127.172ZM127.172 32.8276H154.207V5.7931H127.172V32.8276Z" fill="white"/>
<path fill-rule="evenodd" clip-rule="evenodd" d="M5.7931 121.379H32.8276H38.6207V127.172V154.207V160H32.8276H5.7931H0V154.207V127.172V121.379H5.7931ZM5.7931 154.207H32.8276V127.172H5.7931V154.207Z" fill="white"/>
<rect x="11.0345" y="11.0345" width="16.5517" height="16.5517" fill="white"/>
<rect x="132.414" y="11.0345" width="16.5517" height="16.5517" fill="white"/>
<rect x="11.0345" y="132.414" width="16.5517" height="16.5517" fill="white"/>
</svg>
